<svg width="216" height="144" viewBox="0 0 216 144" fill="none" xmlns="http://www.w3.org/2000/svg">
<path d="M0 0H133.313H216V144H1e-05L0 0Z" fill="#2E2E2E"/>
<path d="M104.67 112.22C105.426 112.22 105.984 112.256 106.524 112.328V111.122C106.038 111.194 105.498 111.23 104.724 111.23H99.216C99.306 110.78 99.342 110.6 99.378 110.24C99.396 110.024 99.396 109.988 99.432 109.808L98.136 109.79C98.154 109.988 98.172 110.06 98.172 110.222C98.172 110.546 98.136 110.816 98.064 111.23H93.294C92.538 111.23 92.016 111.194 91.494 111.122V112.328C92.016 112.256 92.61 112.22 93.33 112.22H97.74C97.308 113.174 96.714 113.84 95.742 114.506C94.518 115.334 93.168 115.802 91.098 116.126C91.386 116.558 91.53 116.846 91.656 117.278C93.78 116.792 94.914 116.378 96.12 115.604C97.38 114.794 98.316 113.714 98.838 112.49C99.45 113.606 100.332 114.578 101.484 115.37C102.816 116.27 104.238 116.846 106.362 117.314C106.47 116.882 106.632 116.54 106.92 116.09C105.264 115.892 103.896 115.478 102.672 114.794C101.43 114.11 100.494 113.264 99.846 112.22H104.67ZM93.798 103.166C93.024 103.166 92.538 103.13 91.998 103.058V104.246C92.52 104.174 93.042 104.138 93.798 104.138H98.334V105.758H94.374C93.654 105.758 93.294 105.74 92.826 105.668V106.82C93.276 106.748 93.672 106.73 94.374 106.73H98.334V108.476H93.042C92.268 108.476 91.728 108.44 91.242 108.368V109.574C91.746 109.502 92.322 109.466 93.042 109.466H104.94C105.678 109.466 106.236 109.484 106.74 109.556V108.368C106.236 108.44 105.714 108.476 104.94 108.476H99.45V106.73H103.608C104.31 106.73 104.706 106.748 105.156 106.82V105.668C104.67 105.74 104.328 105.758 103.608 105.758H99.45V104.138H104.184C104.922 104.138 105.498 104.174 105.984 104.246V103.058C105.48 103.13 104.958 103.166 104.184 103.166H101.484C102.006 102.572 102.348 102.104 102.762 101.474L101.646 101.06C101.268 101.852 100.8 102.554 100.26 103.166H97.56C97.146 102.428 96.732 101.852 96.03 100.988L95.022 101.456C95.526 101.978 95.868 102.428 96.336 103.166H93.798ZM116.226 102.572H111.366C110.646 102.572 110.106 102.554 109.548 102.5C109.602 102.878 109.62 103.238 109.62 103.724V104.876C109.62 105.398 109.602 105.704 109.548 106.118H110.736V103.616H123.372V106.118H124.542C124.488 105.74 124.47 105.398 124.47 104.876V103.724C124.47 103.238 124.488 102.878 124.542 102.5C123.966 102.554 123.444 102.572 122.742 102.572H117.396V102.014C117.396 101.6 117.414 101.312 117.504 100.898H116.1C116.19 101.294 116.226 101.618 116.226 102.014V102.572ZM112.122 115.766C112.122 116.324 112.086 116.864 112.014 117.386H113.256V116.486H120.816V117.386H122.04C121.968 116.882 121.932 116.36 121.932 115.784V111.716C122.724 112.238 123.372 112.616 124.506 113.21C124.704 112.742 124.884 112.454 125.172 112.112C123.39 111.374 122.346 110.78 121.068 109.826C119.484 108.638 118.476 107.612 117.63 106.316H116.478C115.686 107.558 114.822 108.476 113.364 109.628C111.978 110.708 110.682 111.464 108.99 112.166C109.278 112.454 109.458 112.724 109.674 113.174C110.898 112.526 111.33 112.274 111.762 111.968C111.996 111.806 111.996 111.806 112.122 111.716V115.766ZM113.202 110.96C114.138 110.294 114.192 110.258 114.822 109.7C115.794 108.836 116.28 108.314 117.09 107.27C118.314 108.89 119.052 109.61 120.852 110.96H113.202ZM113.256 112.004H120.816V115.442H113.256V112.004ZM114.21 104.444C113.346 105.524 112.86 106.028 111.996 106.694C111.258 107.252 110.772 107.54 109.872 107.936C110.304 108.278 110.466 108.44 110.736 108.836C111.708 108.296 112.212 107.936 112.986 107.27C113.85 106.55 114.318 106.046 115.182 104.984L114.21 104.444ZM118.728 105.038C120.474 106.946 121.374 107.63 123.606 108.8C123.858 108.35 123.966 108.17 124.29 107.81C122.13 106.838 121.158 106.118 119.646 104.408L118.728 105.038Z" fill="white"/>
<path d="M22.5799 46V30H27.9861C29.2361 30 30.2622 30.2135 31.0643 30.6406C31.8663 31.0625 32.4601 31.6432 32.8455 32.3828C33.2309 33.1224 33.4236 33.9635 33.4236 34.9062C33.4236 35.849 33.2309 36.6849 32.8455 37.4141C32.4601 38.1432 31.8689 38.7161 31.0721 39.1328C30.2752 39.5443 29.257 39.75 28.0174 39.75H23.6424V38H27.9549C28.809 38 29.4965 37.875 30.0174 37.625C30.5434 37.375 30.9236 37.0208 31.158 36.5625C31.3976 36.099 31.5174 35.5469 31.5174 34.9062C31.5174 34.2656 31.3976 33.7057 31.158 33.2266C30.9184 32.7474 30.5356 32.3776 30.0096 32.1172C29.4835 31.8516 28.7882 31.7187 27.9236 31.7187H24.5174V46H22.5799ZM30.1111 38.8125L34.0486 46H31.7986L27.9236 38.8125H30.1111ZM36.7621 46V30H46.4184V31.7187H38.6996V37.125H45.9184V38.8437H38.6996V44.2812H46.5434V46H36.7621ZM62.8956 35H60.9581C60.8435 34.4427 60.643 33.9531 60.3565 33.5312C60.0753 33.1094 59.7315 32.7552 59.3253 32.4688C58.9242 32.1771 58.4789 31.9583 57.9893 31.8125C57.4998 31.6667 56.9893 31.5937 56.4581 31.5937C55.4893 31.5937 54.6117 31.8385 53.8253 32.3281C53.044 32.8177 52.4216 33.5391 51.9581 34.4922C51.4998 35.4453 51.2706 36.6146 51.2706 38C51.2706 39.3854 51.4998 40.5547 51.9581 41.5078C52.4216 42.4609 53.044 43.1823 53.8253 43.6719C54.6117 44.1615 55.4893 44.4062 56.4581 44.4062C56.9893 44.4062 57.4998 44.3333 57.9893 44.1875C58.4789 44.0417 58.9242 43.8255 59.3253 43.5391C59.7315 43.2474 60.0753 42.8906 60.3565 42.4687C60.643 42.0417 60.8435 41.5521 60.9581 41H62.8956C62.7498 41.8177 62.4841 42.5495 62.0987 43.1953C61.7133 43.8411 61.2341 44.3906 60.6612 44.8437C60.0883 45.2917 59.4451 45.6328 58.7315 45.8672C58.0232 46.1016 57.2654 46.2187 56.4581 46.2187C55.0935 46.2187 53.88 45.8854 52.8175 45.2188C51.755 44.5521 50.919 43.6042 50.3096 42.375C49.7003 41.1458 49.3956 39.6875 49.3956 38C49.3956 36.3125 49.7003 34.8542 50.3096 33.625C50.919 32.3958 51.755 31.4479 52.8175 30.7812C53.88 30.1146 55.0935 29.7812 56.4581 29.7812C57.2654 29.7812 58.0232 29.8984 58.7315 30.1328C59.4451 30.3672 60.0883 30.7109 60.6612 31.1641C61.2341 31.612 61.7133 32.1589 62.0987 32.8047C62.4841 33.4453 62.7498 34.1771 62.8956 35ZM79.6364 38C79.6364 39.6875 79.3318 41.1458 78.7224 42.375C78.113 43.6042 77.2771 44.5521 76.2146 45.2188C75.1521 45.8854 73.9385 46.2187 72.5739 46.2187C71.2094 46.2187 69.9958 45.8854 68.9333 45.2188C67.8708 44.5521 67.0349 43.6042 66.4255 42.375C65.8161 41.1458 65.5114 39.6875 65.5114 38C65.5114 36.3125 65.8161 34.8542 66.4255 33.625C67.0349 32.3958 67.8708 31.4479 68.9333 30.7812C69.9958 30.1146 71.2094 29.7812 72.5739 29.7812C73.9385 29.7812 75.1521 30.1146 76.2146 30.7812C77.2771 31.4479 78.113 32.3958 78.7224 33.625C79.3318 34.8542 79.6364 36.3125 79.6364 38ZM77.7614 38C77.7614 36.6146 77.5297 35.4453 77.0661 34.4922C76.6078 33.5391 75.9854 32.8177 75.1989 32.3281C74.4177 31.8385 73.5427 31.5937 72.5739 31.5937C71.6052 31.5937 70.7276 31.8385 69.9411 32.3281C69.1599 32.8177 68.5375 33.5391 68.0739 34.4922C67.6156 35.4453 67.3864 36.6146 67.3864 38C67.3864 39.3854 67.6156 40.5547 68.0739 41.5078C68.5375 42.4609 69.1599 43.1823 69.9411 43.6719C70.7276 44.1615 71.6052 44.4062 72.5739 44.4062C73.5427 44.4062 74.4177 44.1615 75.1989 43.6719C75.9854 43.1823 76.6078 42.4609 77.0661 41.5078C77.5297 40.5547 77.7614 39.3854 77.7614 38ZM83.0043 30H85.3168L90.7543 43.2812H90.9418L96.3793 30H98.6918V46H96.8793V33.8438H96.723L91.723 46H89.973L84.973 33.8438H84.8168V46H83.0043V30ZM102.687 30H104.999L110.437 43.2812H110.624L116.062 30H118.374V46H116.562V33.8438H116.405L111.405 46H109.655L104.655 33.8438H104.499V46H102.687V30ZM122.369 46V30H132.025V31.7187H124.306V37.125H131.525V38.8437H124.306V44.2812H132.15V46H122.369ZM148.315 30V46H146.44L137.721 33.4375H137.565V46H135.627V30H137.502L146.252 42.5937H146.408V30H148.315ZM157.239 46H152.302V30H157.458C159.01 30 160.338 30.3203 161.442 30.9609C162.546 31.5964 163.393 32.5104 163.981 33.7031C164.57 34.8906 164.864 36.3125 164.864 37.9687C164.864 39.6354 164.567 41.0703 163.974 42.2734C163.38 43.4714 162.515 44.3932 161.38 45.0391C160.244 45.6797 158.864 46 157.239 46ZM154.239 44.2812H157.114C158.437 44.2812 159.533 44.026 160.403 43.5156C161.273 43.0052 161.921 42.2786 162.349 41.3359C162.776 40.3932 162.989 39.2708 162.989 37.9687C162.989 36.6771 162.778 35.5651 162.356 34.6328C161.934 33.6953 161.304 32.9766 160.466 32.4766C159.627 31.9714 158.583 31.7187 157.333 31.7187H154.239V44.2812ZM168.224 46V30H177.88V31.7187H170.162V37.125H177.38V38.8437H170.162V44.2812H178.005V46H168.224ZM186.42 46H181.483V30H186.639C188.191 30 189.519 30.3203 190.623 30.9609C191.727 31.5964 192.574 32.5104 193.162 33.7031C193.751 34.8906 194.045 36.3125 194.045 37.9687C194.045 39.6354 193.748 41.0703 193.154 42.2734C192.561 43.4714 191.696 44.3932 190.561 45.0391C189.425 45.6797 188.045 46 186.42 46ZM183.42 44.2812H186.295C187.618 44.2812 188.714 44.026 189.584 43.5156C190.454 43.0052 191.102 42.2786 191.529 41.3359C191.957 40.3932 192.17 39.2708 192.17 37.9687C192.17 36.6771 191.959 35.5651 191.537 34.6328C191.115 33.6953 190.485 32.9766 189.647 32.4766C188.808 31.9714 187.764 31.7187 186.514 31.7187H183.42V44.2812ZM65.974 73V57H71.5678C72.6824 57 73.6016 57.1927 74.3256 57.5781C75.0495 57.9583 75.5886 58.4714 75.9428 59.1172C76.2969 59.7578 76.474 60.4687 76.474 61.25C76.474 61.9375 76.3516 62.5052 76.1068 62.9531C75.8673 63.401 75.5495 63.7552 75.1537 64.0156C74.7631 64.276 74.3386 64.4687 73.8803 64.5937V64.75C74.3699 64.7812 74.862 64.9531 75.3568 65.2656C75.8516 65.5781 76.2657 66.026 76.599 66.6094C76.9324 67.1927 77.099 67.9062 77.099 68.75C77.099 69.5521 76.9167 70.2734 76.5521 70.9141C76.1876 71.5547 75.612 72.0625 74.8256 72.4375C74.0391 72.8125 73.0157 73 71.7553 73H65.974ZM67.9115 71.2812H71.7553C73.0209 71.2812 73.9193 71.0365 74.4506 70.5469C74.987 70.0521 75.2553 69.4531 75.2553 68.75C75.2553 68.2083 75.1173 67.7083 74.8412 67.25C74.5652 66.7865 74.1719 66.4167 73.6615 66.1406C73.1511 65.8594 72.5469 65.7188 71.849 65.7188H67.9115V71.2812ZM67.9115 64.0312H71.5053C72.0886 64.0312 72.6146 63.9167 73.0834 63.6875C73.5574 63.4583 73.9324 63.1354 74.2084 62.7187C74.4896 62.3021 74.6303 61.8125 74.6303 61.25C74.6303 60.5469 74.3855 59.9505 73.8959 59.4609C73.4063 58.9661 72.6303 58.7187 71.5678 58.7187H67.9115V64.0312ZM80.3926 73V57H90.0489V58.7187H82.3301V64.125H89.5489V65.8437H82.3301V71.2812H90.1739V73H80.3926ZM94.3073 73H92.2761L98.1511 57H100.151L106.026 73H103.995L99.2136 59.5312H99.0886L94.3073 73ZM95.0573 66.75H103.245V68.4687H95.0573V66.75ZM119.128 57H121.066V67.5937C121.066 68.6875 120.808 69.6641 120.292 70.5234C119.782 71.3776 119.061 72.0521 118.128 72.5469C117.196 73.0365 116.102 73.2813 114.847 73.2813C113.592 73.2813 112.498 73.0365 111.566 72.5469C110.633 72.0521 109.909 71.3776 109.394 70.5234C108.883 69.6641 108.628 68.6875 108.628 67.5937V57H110.566V67.4375C110.566 68.2187 110.738 68.9141 111.081 69.5234C111.425 70.1276 111.915 70.6042 112.55 70.9531C113.191 71.2969 113.956 71.4687 114.847 71.4687C115.738 71.4687 116.503 71.2969 117.144 70.9531C117.784 70.6042 118.274 70.1276 118.613 69.5234C118.956 68.9141 119.128 68.2187 119.128 67.4375V57ZM124.17 58.7187V57H136.17V58.7187H131.139V73H129.201V58.7187H124.17ZM137.895 57H140.114L144.551 64.4687H144.739L149.176 57H151.395L145.614 66.4063V73H143.676V66.4063L137.895 57Z" fill="#FFCC21"/>
<path d="M80 88H136H80Z" fill="black" fill-opacity="0.01"/>
<path d="M80 88H136" stroke="white"/>
</svg>
