<svg width="216" height="144" viewBox="0 0 216 144" fill="none" xmlns="http://www.w3.org/2000/svg">
<path d="M0 0H133.313H216V144H1e-05L0 0Z" fill="#2E2E2E"/>
<path d="M101.556 105.11H100.026C99.144 105.11 98.694 105.092 98.28 105.02V106.118C98.694 106.046 99.108 106.028 99.864 106.028H101.556V107.666H100.278C99.702 107.666 99.36 107.648 98.946 107.594V108.62C99.36 108.566 99.72 108.548 100.26 108.548H101.556V109.988H100.188C99.432 109.988 99 109.97 98.622 109.898V110.978C99 110.906 99.486 110.888 100.188 110.888H101.556V112.418H99.504C98.838 112.418 98.352 112.4 97.83 112.328V113.444C98.28 113.372 98.712 113.354 99.486 113.354H101.556V113.714C101.556 114.29 101.52 114.614 101.466 115.028H102.654C102.582 114.542 102.564 114.2 102.564 113.696V113.354H105.264C106.038 113.354 106.506 113.372 107.028 113.426V112.328C106.542 112.382 106.002 112.418 105.264 112.418H102.564V110.888H104.616C105.228 110.888 105.75 110.924 106.308 110.978V109.898C105.84 109.97 105.426 109.988 104.634 109.988H102.564V108.548H104.652C105.192 108.548 105.642 108.566 106.02 108.584C105.984 108.242 105.984 107.99 105.984 107.486V106.028H106.164C106.542 106.028 106.866 106.046 107.37 106.118V105.02C106.992 105.092 106.704 105.11 106.164 105.11H105.984V103.814C105.984 103.094 105.984 102.986 106.02 102.608C105.732 102.644 105.336 102.662 104.67 102.662H102.564V102.5C102.564 101.924 102.582 101.6 102.636 101.186H101.466C101.52 101.6 101.556 101.942 101.556 102.5V102.662H100.422C99.774 102.662 99.45 102.644 99.054 102.572V103.652C99.486 103.598 99.828 103.58 100.422 103.58H101.556V105.11ZM102.564 105.11V103.58H104.958V105.11H102.564ZM102.564 106.028H104.958V107.666H102.564V106.028ZM94.302 109.808C95.166 112.04 95.328 112.382 95.976 113.372C95.472 114.524 94.806 115.478 93.852 116.378C94.392 116.864 94.392 116.864 94.626 117.242C95.634 116.072 96.102 115.388 96.66 114.254C97.506 115.172 98.298 115.676 99.504 116.09C100.854 116.558 102.438 116.756 104.742 116.756C105.444 116.756 105.948 116.738 107.136 116.684C107.172 116.27 107.244 116.018 107.478 115.514C105.984 115.658 105.066 115.712 104.094 115.712C100.494 115.712 98.55 115.028 97.074 113.264C97.596 111.824 97.992 110.114 98.226 108.242C98.298 107.756 98.298 107.756 98.352 107.306C98.01 107.36 97.65 107.378 96.696 107.378H95.94C96.768 106.118 97.65 104.516 98.082 103.418C98.208 103.13 98.244 103.058 98.316 102.932L97.794 102.374C97.542 102.41 97.344 102.428 96.84 102.428H95.922C95.49 102.428 95.13 102.41 94.86 102.374V103.472C95.148 103.418 95.49 103.382 95.868 103.382H97.002C96.3 105.092 95.436 106.586 94.194 108.314C94.68 108.278 94.95 108.278 95.49 108.278H97.236C96.966 110.204 96.786 111.086 96.408 112.256C95.76 111.068 95.526 110.438 95.346 109.376L94.302 109.808ZM92.466 115.064C92.466 116.036 92.43 116.666 92.358 117.278H93.6C93.546 116.684 93.528 116.108 93.528 115.046V105.362C93.996 104.246 94.41 103.13 94.698 102.104C94.806 101.708 94.824 101.654 94.986 101.24L93.834 100.916C93.762 101.528 93.456 102.644 93.078 103.688C92.268 105.902 91.494 107.36 90.288 108.926C90.378 109.034 90.378 109.034 90.486 109.196C90.684 109.412 90.684 109.412 90.846 109.718C90.864 109.772 90.918 109.844 90.972 109.934C91.584 109.088 91.962 108.458 92.52 107.27C92.484 108.134 92.466 108.962 92.466 110.006V115.064ZM117.288 107.18H111.492C111.51 106.082 111.528 105.344 111.528 103.472H123.264C123.93 103.472 124.398 103.49 124.974 103.562V102.392C124.542 102.464 124.002 102.5 123.102 102.5H118.062V102.068C118.062 101.492 118.08 101.204 118.152 100.88H116.82C116.892 101.24 116.928 101.51 116.928 102.05V102.5H112.356C111.384 102.5 110.862 102.482 110.34 102.41C110.394 102.932 110.412 103.382 110.412 104.444C110.412 108.116 110.196 111.23 109.8 113.192C109.566 114.38 109.296 115.154 108.666 116.396C109.116 116.702 109.278 116.846 109.62 117.242C110.808 114.83 111.276 112.544 111.456 108.116H117.288V109.556H113.976C113.346 109.556 112.968 109.538 112.572 109.466V110.564C112.968 110.492 113.382 110.474 114.012 110.474H117.288V112.832C115.236 113.84 114.462 114.146 112.842 114.668C111.978 114.938 111.798 114.992 111.366 115.064L111.924 116.198C112.14 116.108 112.32 116.018 112.608 115.91C114.66 115.136 114.912 115.028 117.288 113.858V115.676C117.288 116.054 117.18 116.108 116.55 116.108C115.938 116.108 115.344 116.036 114.642 115.892C114.804 116.342 114.858 116.63 114.894 117.116C115.56 117.17 116.082 117.188 116.55 117.188C117.954 117.188 118.314 116.918 118.314 115.838V113.012C118.314 112.67 118.278 111.698 118.224 111.194C118.962 112.598 119.628 113.534 120.492 114.362C121.608 115.46 122.472 116.036 124.344 117.026C124.668 116.54 124.884 116.306 125.154 116.036C123.444 115.316 122.364 114.65 121.194 113.606C122.31 112.868 123.012 112.31 124.182 111.212L123.228 110.528C122.49 111.446 121.842 112.022 120.492 112.922C119.718 112.094 119.25 111.428 118.746 110.474H121.932C122.364 110.474 122.364 110.474 123.246 110.51C123.21 110.132 123.21 110.024 123.21 109.25V108.116H123.732C124.272 108.116 124.704 108.134 125.154 108.206V107.09C124.812 107.162 124.47 107.18 123.75 107.18H123.21V106.1C123.21 105.578 123.21 105.2 123.264 104.858C122.76 104.912 122.418 104.93 121.716 104.93H118.332C118.332 104.408 118.35 104.156 118.404 103.886H117.198C117.252 104.192 117.27 104.372 117.288 104.93H114.156C113.472 104.93 113.13 104.912 112.734 104.84V105.938C113.166 105.866 113.58 105.848 114.156 105.848H117.288V107.18ZM122.166 108.116V109.556H118.332V108.116H122.166ZM122.166 107.18H118.332V105.848H122.166V107.18ZM112.716 111.482C113.742 112.076 114.264 112.472 115.218 113.408L115.956 112.706C115.038 111.86 114.462 111.41 113.49 110.834L112.716 111.482Z" fill="white"/>
<path d="M22.5799 46V30H27.9861C29.2361 30 30.2622 30.2135 31.0643 30.6406C31.8663 31.0625 32.4601 31.6432 32.8455 32.3828C33.2309 33.1224 33.4236 33.9635 33.4236 34.9062C33.4236 35.849 33.2309 36.6849 32.8455 37.4141C32.4601 38.1432 31.8689 38.7161 31.0721 39.1328C30.2752 39.5443 29.257 39.75 28.0174 39.75H23.6424V38H27.9549C28.809 38 29.4965 37.875 30.0174 37.625C30.5434 37.375 30.9236 37.0208 31.158 36.5625C31.3976 36.099 31.5174 35.5469 31.5174 34.9062C31.5174 34.2656 31.3976 33.7057 31.158 33.2266C30.9184 32.7474 30.5356 32.3776 30.0096 32.1172C29.4835 31.8516 28.7882 31.7187 27.9236 31.7187H24.5174V46H22.5799ZM30.1111 38.8125L34.0486 46H31.7986L27.9236 38.8125H30.1111ZM36.7621 46V30H46.4184V31.7187H38.6996V37.125H45.9184V38.8437H38.6996V44.2812H46.5434V46H36.7621ZM62.8956 35H60.9581C60.8435 34.4427 60.643 33.9531 60.3565 33.5312C60.0753 33.1094 59.7315 32.7552 59.3253 32.4688C58.9242 32.1771 58.4789 31.9583 57.9893 31.8125C57.4998 31.6667 56.9893 31.5937 56.4581 31.5937C55.4893 31.5937 54.6117 31.8385 53.8253 32.3281C53.044 32.8177 52.4216 33.5391 51.9581 34.4922C51.4998 35.4453 51.2706 36.6146 51.2706 38C51.2706 39.3854 51.4998 40.5547 51.9581 41.5078C52.4216 42.4609 53.044 43.1823 53.8253 43.6719C54.6117 44.1615 55.4893 44.4062 56.4581 44.4062C56.9893 44.4062 57.4998 44.3333 57.9893 44.1875C58.4789 44.0417 58.9242 43.8255 59.3253 43.5391C59.7315 43.2474 60.0753 42.8906 60.3565 42.4687C60.643 42.0417 60.8435 41.5521 60.9581 41H62.8956C62.7498 41.8177 62.4841 42.5495 62.0987 43.1953C61.7133 43.8411 61.2341 44.3906 60.6612 44.8437C60.0883 45.2917 59.4451 45.6328 58.7315 45.8672C58.0232 46.1016 57.2654 46.2187 56.4581 46.2187C55.0935 46.2187 53.88 45.8854 52.8175 45.2188C51.755 44.5521 50.919 43.6042 50.3096 42.375C49.7003 41.1458 49.3956 39.6875 49.3956 38C49.3956 36.3125 49.7003 34.8542 50.3096 33.625C50.919 32.3958 51.755 31.4479 52.8175 30.7812C53.88 30.1146 55.0935 29.7812 56.4581 29.7812C57.2654 29.7812 58.0232 29.8984 58.7315 30.1328C59.4451 30.3672 60.0883 30.7109 60.6612 31.1641C61.2341 31.612 61.7133 32.1589 62.0987 32.8047C62.4841 33.4453 62.7498 34.1771 62.8956 35ZM79.6364 38C79.6364 39.6875 79.3318 41.1458 78.7224 42.375C78.113 43.6042 77.2771 44.5521 76.2146 45.2188C75.1521 45.8854 73.9385 46.2187 72.5739 46.2187C71.2094 46.2187 69.9958 45.8854 68.9333 45.2188C67.8708 44.5521 67.0349 43.6042 66.4255 42.375C65.8161 41.1458 65.5114 39.6875 65.5114 38C65.5114 36.3125 65.8161 34.8542 66.4255 33.625C67.0349 32.3958 67.8708 31.4479 68.9333 30.7812C69.9958 30.1146 71.2094 29.7812 72.5739 29.7812C73.9385 29.7812 75.1521 30.1146 76.2146 30.7812C77.2771 31.4479 78.113 32.3958 78.7224 33.625C79.3318 34.8542 79.6364 36.3125 79.6364 38ZM77.7614 38C77.7614 36.6146 77.5297 35.4453 77.0661 34.4922C76.6078 33.5391 75.9854 32.8177 75.1989 32.3281C74.4177 31.8385 73.5427 31.5937 72.5739 31.5937C71.6052 31.5937 70.7276 31.8385 69.9411 32.3281C69.1599 32.8177 68.5375 33.5391 68.0739 34.4922C67.6156 35.4453 67.3864 36.6146 67.3864 38C67.3864 39.3854 67.6156 40.5547 68.0739 41.5078C68.5375 42.4609 69.1599 43.1823 69.9411 43.6719C70.7276 44.1615 71.6052 44.4062 72.5739 44.4062C73.5427 44.4062 74.4177 44.1615 75.1989 43.6719C75.9854 43.1823 76.6078 42.4609 77.0661 41.5078C77.5297 40.5547 77.7614 39.3854 77.7614 38ZM83.0043 30H85.3168L90.7543 43.2812H90.9418L96.3793 30H98.6918V46H96.8793V33.8438H96.723L91.723 46H89.973L84.973 33.8438H84.8168V46H83.0043V30ZM102.687 30H104.999L110.437 43.2812H110.624L116.062 30H118.374V46H116.562V33.8438H116.405L111.405 46H109.655L104.655 33.8438H104.499V46H102.687V30ZM122.369 46V30H132.025V31.7187H124.306V37.125H131.525V38.8437H124.306V44.2812H132.15V46H122.369ZM148.315 30V46H146.44L137.721 33.4375H137.565V46H135.627V30H137.502L146.252 42.5937H146.408V30H148.315ZM157.239 46H152.302V30H157.458C159.01 30 160.338 30.3203 161.442 30.9609C162.546 31.5964 163.393 32.5104 163.981 33.7031C164.57 34.8906 164.864 36.3125 164.864 37.9687C164.864 39.6354 164.567 41.0703 163.974 42.2734C163.38 43.4714 162.515 44.3932 161.38 45.0391C160.244 45.6797 158.864 46 157.239 46ZM154.239 44.2812H157.114C158.437 44.2812 159.533 44.026 160.403 43.5156C161.273 43.0052 161.921 42.2786 162.349 41.3359C162.776 40.3932 162.989 39.2708 162.989 37.9687C162.989 36.6771 162.778 35.5651 162.356 34.6328C161.934 33.6953 161.304 32.9766 160.466 32.4766C159.627 31.9714 158.583 31.7187 157.333 31.7187H154.239V44.2812ZM168.224 46V30H177.88V31.7187H170.162V37.125H177.38V38.8437H170.162V44.2812H178.005V46H168.224ZM186.42 46H181.483V30H186.639C188.191 30 189.519 30.3203 190.623 30.9609C191.727 31.5964 192.574 32.5104 193.162 33.7031C193.751 34.8906 194.045 36.3125 194.045 37.9687C194.045 39.6354 193.748 41.0703 193.154 42.2734C192.561 43.4714 191.696 44.3932 190.561 45.0391C189.425 45.6797 188.045 46 186.42 46ZM183.42 44.2812H186.295C187.618 44.2812 188.714 44.026 189.584 43.5156C190.454 43.0052 191.102 42.2786 191.529 41.3359C191.957 40.3932 192.17 39.2708 192.17 37.9687C192.17 36.6771 191.959 35.5651 191.537 34.6328C191.115 33.6953 190.485 32.9766 189.647 32.4766C188.808 31.9714 187.764 31.7187 186.514 31.7187H183.42V44.2812ZM67.1879 73V57H69.1254V64.125H77.6566V57H79.5941V73H77.6566V65.8437H69.1254V73H67.1879ZM83.583 73V57H93.2393V58.7187H85.5205V64.125H92.7393V65.8437H85.5205V71.2812H93.3643V73H83.583ZM97.4977 73H95.4665L101.341 57H103.341L109.216 73H107.185L102.404 59.5312H102.279L97.4977 73ZM98.2477 66.75H106.435V68.4687H98.2477V66.75ZM111.819 73V57H113.756V71.2812H121.194V73H111.819ZM121.302 58.7187V57H133.302V58.7187H128.27V73H126.333V58.7187H121.302ZM136.402 73V57H138.339V64.125H146.871V57H148.808V73H146.871V65.8437H138.339V73H136.402Z" fill="#FFCC21"/>
<path d="M80 88H136H80Z" fill="black" fill-opacity="0.01"/>
<path d="M80 88H136" stroke="white"/>
</svg>
