<svg width="216" height="144" viewBox="0 0 216 144" fill="none" xmlns="http://www.w3.org/2000/svg">
<path d="M0 0H133.313H216V144H1e-05L0 0Z" fill="#2E2E2E"/>
<path d="M71.538 101.15C71.448 101.672 71.07 102.536 70.476 103.598C69.342 105.632 67.686 107.486 65.886 108.746C66.336 108.998 66.534 109.142 66.93 109.61C68.55 108.35 70.098 106.622 71.214 104.804L77.514 104.732C76.974 106.442 75.93 108.602 75.012 109.952C73.698 108.836 72.438 107.954 71.034 107.162L70.206 108.08C71.394 108.71 73.14 109.97 74.238 110.978C72.852 112.85 70.062 114.812 67.398 115.802C67.812 116.144 68.01 116.396 68.28 116.918C73.698 114.398 76.38 111.464 78.648 105.506L78.738 105.236L78.828 104.984C78.846 104.948 78.882 104.858 78.918 104.732L77.874 103.58C77.604 103.616 77.424 103.634 76.776 103.652L72.438 103.688C72.006 103.706 71.988 103.706 71.772 103.742C71.952 103.436 72.15 103.094 72.33 102.752C72.528 102.32 72.654 102.068 72.69 101.996C72.78 101.834 72.816 101.762 72.96 101.546L71.538 101.15ZM77.802 101.726C78.378 102.32 79.188 103.562 79.638 104.498L80.538 103.958C79.98 102.878 79.584 102.284 78.702 101.24L77.802 101.726ZM79.836 100.736C80.592 101.6 81.258 102.59 81.672 103.49L82.572 102.968C81.942 101.798 81.618 101.33 80.718 100.232L79.836 100.736ZM94.7336 101.708C94.2296 102.554 92.9696 103.814 91.2956 105.11C88.4516 107.342 85.3376 108.89 81.9536 109.772C82.3136 110.222 82.4036 110.402 82.6556 110.978C85.9496 109.862 87.2636 109.268 89.6036 107.828V114.668C89.6036 115.658 89.5856 116.072 89.4956 116.54H91.0616C90.9896 116.054 90.9716 115.658 90.9716 114.632V106.964C92.5196 105.848 94.0496 104.534 95.1836 103.346C95.6336 102.86 95.6516 102.824 95.9756 102.59L94.7336 101.708ZM107.405 105.146H110.879C111.851 105.146 112.355 105.164 112.967 105.236V103.85C112.337 103.94 111.905 103.958 110.861 103.958H102.959C101.915 103.958 101.483 103.94 100.853 103.85V105.236C101.465 105.164 101.969 105.146 102.941 105.146H106.073V113.12H101.573C100.511 113.12 100.133 113.102 99.4849 113.012V114.416C100.097 114.344 100.619 114.326 101.555 114.326H112.247C113.201 114.326 113.723 114.344 114.335 114.416V113.012C113.687 113.102 113.309 113.12 112.229 113.12H107.405V105.146ZM118.74 106.496C119.496 107.738 120 108.944 120.432 110.528L121.656 110.114C120.99 108.206 120.594 107.36 119.874 106.118L118.74 106.496ZM122.448 105.74C123.222 107.09 123.78 108.404 124.104 109.682L125.292 109.268C124.824 107.828 124.5 107.108 123.546 105.398L122.448 105.74ZM128.694 105.722C128.694 105.776 128.694 105.776 128.694 105.83V105.902C128.694 106.118 128.622 106.532 128.496 107.126C128.172 108.512 127.65 109.862 126.966 110.996C125.724 113.066 124.032 114.452 121.26 115.694C121.674 116.072 121.818 116.252 122.088 116.702C124.878 115.352 126.768 113.696 128.046 111.5C128.694 110.384 129.342 108.728 129.63 107.468C129.918 106.298 129.918 106.298 130.026 106.01L128.694 105.722ZM140.25 116.558C140.178 116.054 140.16 115.658 140.16 114.65V109.232C140.16 108.782 140.142 108.53 140.088 108.17L140.124 108.152C140.286 108.278 140.412 108.35 140.682 108.458C143.22 109.502 145.704 110.834 147.396 112.022L148.17 110.69C145.02 108.872 142.932 107.882 140.16 106.892V103.526C140.16 102.5 140.178 102.122 140.25 101.654H138.702C138.774 102.104 138.81 102.536 138.81 103.49V114.668C138.81 115.64 138.774 116.072 138.702 116.558H140.25Z" fill="white"/>
<path d="M22.5799 46V30H27.9861C29.2361 30 30.2622 30.2135 31.0643 30.6406C31.8663 31.0625 32.4601 31.6432 32.8455 32.3828C33.2309 33.1224 33.4236 33.9635 33.4236 34.9062C33.4236 35.849 33.2309 36.6849 32.8455 37.4141C32.4601 38.1432 31.8689 38.7161 31.0721 39.1328C30.2752 39.5443 29.257 39.75 28.0174 39.75H23.6424V38H27.9549C28.809 38 29.4965 37.875 30.0174 37.625C30.5434 37.375 30.9236 37.0208 31.158 36.5625C31.3976 36.099 31.5174 35.5469 31.5174 34.9062C31.5174 34.2656 31.3976 33.7057 31.158 33.2266C30.9184 32.7474 30.5356 32.3776 30.0096 32.1172C29.4835 31.8516 28.7882 31.7187 27.9236 31.7187H24.5174V46H22.5799ZM30.1111 38.8125L34.0486 46H31.7986L27.9236 38.8125H30.1111ZM36.7621 46V30H46.4184V31.7187H38.6996V37.125H45.9184V38.8437H38.6996V44.2812H46.5434V46H36.7621ZM62.8956 35H60.9581C60.8435 34.4427 60.643 33.9531 60.3565 33.5312C60.0753 33.1094 59.7315 32.7552 59.3253 32.4688C58.9242 32.1771 58.4789 31.9583 57.9893 31.8125C57.4998 31.6667 56.9893 31.5937 56.4581 31.5937C55.4893 31.5937 54.6117 31.8385 53.8253 32.3281C53.044 32.8177 52.4216 33.5391 51.9581 34.4922C51.4998 35.4453 51.2706 36.6146 51.2706 38C51.2706 39.3854 51.4998 40.5547 51.9581 41.5078C52.4216 42.4609 53.044 43.1823 53.8253 43.6719C54.6117 44.1615 55.4893 44.4062 56.4581 44.4062C56.9893 44.4062 57.4998 44.3333 57.9893 44.1875C58.4789 44.0417 58.9242 43.8255 59.3253 43.5391C59.7315 43.2474 60.0753 42.8906 60.3565 42.4687C60.643 42.0417 60.8435 41.5521 60.9581 41H62.8956C62.7498 41.8177 62.4841 42.5495 62.0987 43.1953C61.7133 43.8411 61.2341 44.3906 60.6612 44.8437C60.0883 45.2917 59.4451 45.6328 58.7315 45.8672C58.0232 46.1016 57.2654 46.2187 56.4581 46.2187C55.0935 46.2187 53.88 45.8854 52.8175 45.2188C51.755 44.5521 50.919 43.6042 50.3096 42.375C49.7003 41.1458 49.3956 39.6875 49.3956 38C49.3956 36.3125 49.7003 34.8542 50.3096 33.625C50.919 32.3958 51.755 31.4479 52.8175 30.7812C53.88 30.1146 55.0935 29.7812 56.4581 29.7812C57.2654 29.7812 58.0232 29.8984 58.7315 30.1328C59.4451 30.3672 60.0883 30.7109 60.6612 31.1641C61.2341 31.612 61.7133 32.1589 62.0987 32.8047C62.4841 33.4453 62.7498 34.1771 62.8956 35ZM79.6364 38C79.6364 39.6875 79.3318 41.1458 78.7224 42.375C78.113 43.6042 77.2771 44.5521 76.2146 45.2188C75.1521 45.8854 73.9385 46.2187 72.5739 46.2187C71.2094 46.2187 69.9958 45.8854 68.9333 45.2188C67.8708 44.5521 67.0349 43.6042 66.4255 42.375C65.8161 41.1458 65.5114 39.6875 65.5114 38C65.5114 36.3125 65.8161 34.8542 66.4255 33.625C67.0349 32.3958 67.8708 31.4479 68.9333 30.7812C69.9958 30.1146 71.2094 29.7812 72.5739 29.7812C73.9385 29.7812 75.1521 30.1146 76.2146 30.7812C77.2771 31.4479 78.113 32.3958 78.7224 33.625C79.3318 34.8542 79.6364 36.3125 79.6364 38ZM77.7614 38C77.7614 36.6146 77.5297 35.4453 77.0661 34.4922C76.6078 33.5391 75.9854 32.8177 75.1989 32.3281C74.4177 31.8385 73.5427 31.5937 72.5739 31.5937C71.6052 31.5937 70.7276 31.8385 69.9411 32.3281C69.1599 32.8177 68.5375 33.5391 68.0739 34.4922C67.6156 35.4453 67.3864 36.6146 67.3864 38C67.3864 39.3854 67.6156 40.5547 68.0739 41.5078C68.5375 42.4609 69.1599 43.1823 69.9411 43.6719C70.7276 44.1615 71.6052 44.4062 72.5739 44.4062C73.5427 44.4062 74.4177 44.1615 75.1989 43.6719C75.9854 43.1823 76.6078 42.4609 77.0661 41.5078C77.5297 40.5547 77.7614 39.3854 77.7614 38ZM83.0043 30H85.3168L90.7543 43.2812H90.9418L96.3793 30H98.6918V46H96.8793V33.8438H96.723L91.723 46H89.973L84.973 33.8438H84.8168V46H83.0043V30ZM102.687 30H104.999L110.437 43.2812H110.624L116.062 30H118.374V46H116.562V33.8438H116.405L111.405 46H109.655L104.655 33.8438H104.499V46H102.687V30ZM122.369 46V30H132.025V31.7187H124.306V37.125H131.525V38.8437H124.306V44.2812H132.15V46H122.369ZM148.315 30V46H146.44L137.721 33.4375H137.565V46H135.627V30H137.502L146.252 42.5937H146.408V30H148.315ZM157.239 46H152.302V30H157.458C159.01 30 160.338 30.3203 161.442 30.9609C162.546 31.5964 163.393 32.5104 163.981 33.7031C164.57 34.8906 164.864 36.3125 164.864 37.9687C164.864 39.6354 164.567 41.0703 163.974 42.2734C163.38 43.4714 162.515 44.3932 161.38 45.0391C160.244 45.6797 158.864 46 157.239 46ZM154.239 44.2812H157.114C158.437 44.2812 159.533 44.026 160.403 43.5156C161.273 43.0052 161.921 42.2786 162.349 41.3359C162.776 40.3932 162.989 39.2708 162.989 37.9687C162.989 36.6771 162.778 35.5651 162.356 34.6328C161.934 33.6953 161.304 32.9766 160.466 32.4766C159.627 31.9714 158.583 31.7187 157.333 31.7187H154.239V44.2812ZM168.224 46V30H177.88V31.7187H170.162V37.125H177.38V38.8437H170.162V44.2812H178.005V46H168.224ZM186.42 46H181.483V30H186.639C188.191 30 189.519 30.3203 190.623 30.9609C191.727 31.5964 192.574 32.5104 193.162 33.7031C193.751 34.8906 194.045 36.3125 194.045 37.9687C194.045 39.6354 193.748 41.0703 193.154 42.2734C192.561 43.4714 191.696 44.3932 190.561 45.0391C189.425 45.6797 188.045 46 186.42 46ZM183.42 44.2812H186.295C187.618 44.2812 188.714 44.026 189.584 43.5156C190.454 43.0052 191.102 42.2786 191.529 41.3359C191.957 40.3932 192.17 39.2708 192.17 37.9687C192.17 36.6771 191.959 35.5651 191.537 34.6328C191.115 33.6953 190.485 32.9766 189.647 32.4766C188.808 31.9714 187.764 31.7187 186.514 31.7187H183.42V44.2812ZM90.2608 73H85.3233V57H90.4795C92.0316 57 93.3597 57.3203 94.4639 57.9609C95.5681 58.5964 96.4144 59.5104 97.003 60.7031C97.5915 61.8906 97.8858 63.3125 97.8858 64.9687C97.8858 66.6354 97.5889 68.0703 96.9952 69.2734C96.4014 70.4714 95.5368 71.3932 94.4014 72.0391C93.266 72.6797 91.8858 73 90.2608 73ZM87.2608 71.2812H90.1358C91.4587 71.2812 92.5551 71.026 93.4248 70.5156C94.2946 70.0052 94.9431 69.2786 95.3702 68.3359C95.7972 67.3932 96.0108 66.2708 96.0108 64.9687C96.0108 63.6771 95.7998 62.5651 95.378 61.6328C94.9561 60.6953 94.3259 59.9766 93.4873 59.4766C92.6488 58.9714 91.6045 58.7187 90.3545 58.7187H87.2608V71.2812ZM103.183 57V73H101.246V57H103.183ZM107.178 73V57H116.834V58.7187H109.116V64.125H116.334V65.8437H109.116V71.2812H116.959V73H107.178ZM119.561 58.7187V57H131.561V58.7187H126.53V73H124.593V58.7187H119.561Z" fill="#FFCC21"/>
<path d="M80 88H136H80Z" fill="black" fill-opacity="0.01"/>
<path d="M80 88H136" stroke="white"/>
</svg>
