<svg width="216" height="144" viewBox="0 0 216 144" fill="none" xmlns="http://www.w3.org/2000/svg">
<path d="M0 0H133.313H216V144H1e-05L0 0Z" fill="#2E2E2E"/>
<path d="M82.692 108.134V108.242L82.764 114.866C82.764 114.974 82.764 115.064 82.764 115.262C82.764 115.964 82.746 116.162 82.692 116.684H84.15C84.096 116.198 84.06 115.622 84.06 114.848L83.934 106.082H86.346C86.436 106.082 86.544 106.082 86.616 106.082C87.354 106.082 87.732 106.1 88.11 106.136V104.822C87.534 104.912 87.318 104.93 86.31 104.93H83.934L83.898 103.13V102.698C83.898 102.392 83.916 102.104 83.97 101.708H82.53C82.602 102.23 82.602 102.23 82.62 103.166L82.638 104.93L76.086 104.966C75.024 104.966 74.7 104.948 74.052 104.84V106.19C74.664 106.118 74.916 106.118 76.05 106.118L81.954 106.082C81.36 107.108 80.37 108.35 79.362 109.358C77.472 111.248 75.438 112.688 73.26 113.66C73.728 114.038 73.872 114.218 74.16 114.74C75.618 113.912 76.32 113.48 77.13 112.886C78.876 111.626 80.46 110.15 81.396 108.908C82.242 107.792 82.404 107.558 82.746 106.892C82.71 107.666 82.692 107.936 82.692 108.062V108.134ZM106.218 115.028C104.166 112.85 102.582 111.428 100.224 109.628C101.34 108.242 102.186 106.82 103.194 104.588C103.392 104.138 103.518 103.922 103.698 103.706L102.942 102.932C102.636 103.04 102.42 103.058 101.79 103.076L95.364 103.148C95.112 103.148 94.95 103.148 94.896 103.148C94.284 103.148 93.96 103.13 93.474 103.058L93.51 104.516C94.032 104.426 94.554 104.39 95.364 104.372L101.376 104.282C101.592 104.282 101.646 104.282 101.808 104.264C101.79 104.318 101.79 104.336 101.754 104.39C101.718 104.48 101.7 104.498 101.664 104.606C100.35 107.756 98.118 110.6 95.238 112.724C93.852 113.75 92.97 114.236 91.584 114.794C92.034 115.244 92.178 115.442 92.466 115.982C93.798 115.316 94.752 114.722 95.994 113.822C97.29 112.868 98.172 112.04 99.432 110.6C101.736 112.382 103.77 114.344 105.192 116.162L106.218 115.028ZM124.218 115.028C122.166 112.85 120.582 111.428 118.224 109.628C119.34 108.242 120.186 106.82 121.194 104.588C121.392 104.138 121.518 103.922 121.698 103.706L120.942 102.932C120.636 103.04 120.42 103.058 119.79 103.076L113.364 103.148C113.112 103.148 112.95 103.148 112.896 103.148C112.284 103.148 111.96 103.13 111.474 103.058L111.51 104.516C112.032 104.426 112.554 104.39 113.364 104.372L119.376 104.282C119.592 104.282 119.646 104.282 119.808 104.264C119.79 104.318 119.79 104.336 119.754 104.39C119.718 104.48 119.7 104.498 119.664 104.606C118.35 107.756 116.118 110.6 113.238 112.724C111.852 113.75 110.97 114.236 109.584 114.794C110.034 115.244 110.178 115.442 110.466 115.982C111.798 115.316 112.752 114.722 113.994 113.822C115.29 112.868 116.172 112.04 117.432 110.6C119.736 112.382 121.77 114.344 123.192 116.162L124.218 115.028ZM138.456 102.014C138.366 102.536 138.276 102.824 137.826 103.922C137.196 105.488 136.548 106.784 135.702 108.116C133.686 106.64 132.786 106.046 131.022 104.984L130.122 105.938C131.634 106.766 133.326 107.882 134.964 109.196C132.984 111.86 130.68 113.804 127.8 115.208C128.268 115.586 128.412 115.748 128.736 116.288C131.886 114.506 134.082 112.616 135.972 110.024C137.79 111.554 138.942 112.706 139.896 113.93L140.904 112.814C139.464 111.32 138.312 110.222 136.764 108.944C137.682 107.54 138.24 106.442 139.41 103.688C139.662 103.094 139.734 102.932 139.968 102.59L138.456 102.014Z" fill="white"/>
<path d="M22.5799 46V30H27.9861C29.2361 30 30.2622 30.2135 31.0643 30.6406C31.8663 31.0625 32.4601 31.6432 32.8455 32.3828C33.2309 33.1224 33.4236 33.9635 33.4236 34.9062C33.4236 35.849 33.2309 36.6849 32.8455 37.4141C32.4601 38.1432 31.8689 38.7161 31.0721 39.1328C30.2752 39.5443 29.257 39.75 28.0174 39.75H23.6424V38H27.9549C28.809 38 29.4965 37.875 30.0174 37.625C30.5434 37.375 30.9236 37.0208 31.158 36.5625C31.3976 36.099 31.5174 35.5469 31.5174 34.9062C31.5174 34.2656 31.3976 33.7057 31.158 33.2266C30.9184 32.7474 30.5356 32.3776 30.0096 32.1172C29.4835 31.8516 28.7882 31.7187 27.9236 31.7187H24.5174V46H22.5799ZM30.1111 38.8125L34.0486 46H31.7986L27.9236 38.8125H30.1111ZM36.7621 46V30H46.4184V31.7187H38.6996V37.125H45.9184V38.8437H38.6996V44.2812H46.5434V46H36.7621ZM62.8956 35H60.9581C60.8435 34.4427 60.643 33.9531 60.3565 33.5312C60.0753 33.1094 59.7315 32.7552 59.3253 32.4688C58.9242 32.1771 58.4789 31.9583 57.9893 31.8125C57.4998 31.6667 56.9893 31.5937 56.4581 31.5937C55.4893 31.5937 54.6117 31.8385 53.8253 32.3281C53.044 32.8177 52.4216 33.5391 51.9581 34.4922C51.4998 35.4453 51.2706 36.6146 51.2706 38C51.2706 39.3854 51.4998 40.5547 51.9581 41.5078C52.4216 42.4609 53.044 43.1823 53.8253 43.6719C54.6117 44.1615 55.4893 44.4062 56.4581 44.4062C56.9893 44.4062 57.4998 44.3333 57.9893 44.1875C58.4789 44.0417 58.9242 43.8255 59.3253 43.5391C59.7315 43.2474 60.0753 42.8906 60.3565 42.4687C60.643 42.0417 60.8435 41.5521 60.9581 41H62.8956C62.7498 41.8177 62.4841 42.5495 62.0987 43.1953C61.7133 43.8411 61.2341 44.3906 60.6612 44.8437C60.0883 45.2917 59.4451 45.6328 58.7315 45.8672C58.0232 46.1016 57.2654 46.2187 56.4581 46.2187C55.0935 46.2187 53.88 45.8854 52.8175 45.2188C51.755 44.5521 50.919 43.6042 50.3096 42.375C49.7003 41.1458 49.3956 39.6875 49.3956 38C49.3956 36.3125 49.7003 34.8542 50.3096 33.625C50.919 32.3958 51.755 31.4479 52.8175 30.7812C53.88 30.1146 55.0935 29.7812 56.4581 29.7812C57.2654 29.7812 58.0232 29.8984 58.7315 30.1328C59.4451 30.3672 60.0883 30.7109 60.6612 31.1641C61.2341 31.612 61.7133 32.1589 62.0987 32.8047C62.4841 33.4453 62.7498 34.1771 62.8956 35ZM79.6364 38C79.6364 39.6875 79.3318 41.1458 78.7224 42.375C78.113 43.6042 77.2771 44.5521 76.2146 45.2188C75.1521 45.8854 73.9385 46.2187 72.5739 46.2187C71.2094 46.2187 69.9958 45.8854 68.9333 45.2188C67.8708 44.5521 67.0349 43.6042 66.4255 42.375C65.8161 41.1458 65.5114 39.6875 65.5114 38C65.5114 36.3125 65.8161 34.8542 66.4255 33.625C67.0349 32.3958 67.8708 31.4479 68.9333 30.7812C69.9958 30.1146 71.2094 29.7812 72.5739 29.7812C73.9385 29.7812 75.1521 30.1146 76.2146 30.7812C77.2771 31.4479 78.113 32.3958 78.7224 33.625C79.3318 34.8542 79.6364 36.3125 79.6364 38ZM77.7614 38C77.7614 36.6146 77.5297 35.4453 77.0661 34.4922C76.6078 33.5391 75.9854 32.8177 75.1989 32.3281C74.4177 31.8385 73.5427 31.5937 72.5739 31.5937C71.6052 31.5937 70.7276 31.8385 69.9411 32.3281C69.1599 32.8177 68.5375 33.5391 68.0739 34.4922C67.6156 35.4453 67.3864 36.6146 67.3864 38C67.3864 39.3854 67.6156 40.5547 68.0739 41.5078C68.5375 42.4609 69.1599 43.1823 69.9411 43.6719C70.7276 44.1615 71.6052 44.4062 72.5739 44.4062C73.5427 44.4062 74.4177 44.1615 75.1989 43.6719C75.9854 43.1823 76.6078 42.4609 77.0661 41.5078C77.5297 40.5547 77.7614 39.3854 77.7614 38ZM83.0043 30H85.3168L90.7543 43.2812H90.9418L96.3793 30H98.6918V46H96.8793V33.8438H96.723L91.723 46H89.973L84.973 33.8438H84.8168V46H83.0043V30ZM102.687 30H104.999L110.437 43.2812H110.624L116.062 30H118.374V46H116.562V33.8438H116.405L111.405 46H109.655L104.655 33.8438H104.499V46H102.687V30ZM122.369 46V30H132.025V31.7187H124.306V37.125H131.525V38.8437H124.306V44.2812H132.15V46H122.369ZM148.315 30V46H146.44L137.721 33.4375H137.565V46H135.627V30H137.502L146.252 42.5937H146.408V30H148.315ZM157.239 46H152.302V30H157.458C159.01 30 160.338 30.3203 161.442 30.9609C162.546 31.5964 163.393 32.5104 163.981 33.7031C164.57 34.8906 164.864 36.3125 164.864 37.9687C164.864 39.6354 164.567 41.0703 163.974 42.2734C163.38 43.4714 162.515 44.3932 161.38 45.0391C160.244 45.6797 158.864 46 157.239 46ZM154.239 44.2812H157.114C158.437 44.2812 159.533 44.026 160.403 43.5156C161.273 43.0052 161.921 42.2786 162.349 41.3359C162.776 40.3932 162.989 39.2708 162.989 37.9687C162.989 36.6771 162.778 35.5651 162.356 34.6328C161.934 33.6953 161.304 32.9766 160.466 32.4766C159.627 31.9714 158.583 31.7187 157.333 31.7187H154.239V44.2812ZM168.224 46V30H177.88V31.7187H170.162V37.125H177.38V38.8437H170.162V44.2812H178.005V46H168.224ZM186.42 46H181.483V30H186.639C188.191 30 189.519 30.3203 190.623 30.9609C191.727 31.5964 192.574 32.5104 193.162 33.7031C193.751 34.8906 194.045 36.3125 194.045 37.9687C194.045 39.6354 193.748 41.0703 193.154 42.2734C192.561 43.4714 191.696 44.3932 190.561 45.0391C189.425 45.6797 188.045 46 186.42 46ZM183.42 44.2812H186.295C187.618 44.2812 188.714 44.026 189.584 43.5156C190.454 43.0052 191.102 42.2786 191.529 41.3359C191.957 40.3932 192.17 39.2708 192.17 37.9687C192.17 36.6771 191.959 35.5651 191.537 34.6328C191.115 33.6953 190.485 32.9766 189.647 32.4766C188.808 31.9714 187.764 31.7187 186.514 31.7187H183.42V44.2812ZM73.7465 62H71.809C71.6944 61.4427 71.4939 60.9531 71.2074 60.5312C70.9262 60.1094 70.5824 59.7552 70.1762 59.4688C69.7751 59.1771 69.3298 58.9583 68.8402 58.8125C68.3506 58.6667 67.8402 58.5937 67.309 58.5937C66.3402 58.5937 65.4626 58.8385 64.6762 59.3281C63.8949 59.8177 63.2725 60.5391 62.809 61.4922C62.3506 62.4453 62.1215 63.6146 62.1215 65C62.1215 66.3854 62.3506 67.5547 62.809 68.5078C63.2725 69.4609 63.8949 70.1823 64.6762 70.6719C65.4626 71.1615 66.3402 71.4062 67.309 71.4062C67.8402 71.4062 68.3506 71.3333 68.8402 71.1875C69.3298 71.0417 69.7751 70.8255 70.1762 70.5391C70.5824 70.2474 70.9262 69.8906 71.2074 69.4687C71.4939 69.0417 71.6944 68.5521 71.809 68H73.7465C73.6007 68.8177 73.335 69.5495 72.9496 70.1953C72.5642 70.8411 72.085 71.3906 71.5121 71.8437C70.9392 72.2917 70.296 72.6328 69.5824 72.8672C68.8741 73.1016 68.1163 73.2187 67.309 73.2187C65.9444 73.2187 64.7309 72.8854 63.6684 72.2188C62.6059 71.5521 61.7699 70.6042 61.1605 69.375C60.5512 68.1458 60.2465 66.6875 60.2465 65C60.2465 63.3125 60.5512 61.8542 61.1605 60.625C61.7699 59.3958 62.6059 58.4479 63.6684 57.7812C64.7309 57.1146 65.9444 56.7812 67.309 56.7812C68.1163 56.7812 68.8741 56.8984 69.5824 57.1328C70.296 57.3672 70.9392 57.7109 71.5121 58.1641C72.085 58.612 72.5642 59.1589 72.9496 59.8047C73.335 60.4453 73.6007 61.1771 73.7465 62ZM90.4873 65C90.4873 66.6875 90.1827 68.1458 89.5733 69.375C88.9639 70.6042 88.128 71.5521 87.0655 72.2188C86.003 72.8854 84.7894 73.2187 83.4248 73.2187C82.0603 73.2187 80.8467 72.8854 79.7842 72.2188C78.7217 71.5521 77.8858 70.6042 77.2764 69.375C76.667 68.1458 76.3623 66.6875 76.3623 65C76.3623 63.3125 76.667 61.8542 77.2764 60.625C77.8858 59.3958 78.7217 58.4479 79.7842 57.7812C80.8467 57.1146 82.0603 56.7812 83.4248 56.7812C84.7894 56.7812 86.003 57.1146 87.0655 57.7812C88.128 58.4479 88.9639 59.3958 89.5733 60.625C90.1827 61.8542 90.4873 63.3125 90.4873 65ZM88.6123 65C88.6123 63.6146 88.3806 62.4453 87.917 61.4922C87.4587 60.5391 86.8363 59.8177 86.0498 59.3281C85.2686 58.8385 84.3936 58.5937 83.4248 58.5937C82.4561 58.5937 81.5785 58.8385 80.792 59.3281C80.0108 59.8177 79.3884 60.5391 78.9248 61.4922C78.4665 62.4453 78.2373 63.6146 78.2373 65C78.2373 66.3854 78.4665 67.5547 78.9248 68.5078C79.3884 69.4609 80.0108 70.1823 80.792 70.6719C81.5785 71.1615 82.4561 71.4062 83.4248 71.4062C84.3936 71.4062 85.2686 71.1615 86.0498 70.6719C86.8363 70.1823 87.4587 69.4609 87.917 68.5078C88.3806 67.5547 88.6123 66.3854 88.6123 65ZM93.8552 73V57H95.7927V71.2812H103.23V73H93.8552ZM116.84 57H118.778V67.5937C118.778 68.6875 118.52 69.6641 118.004 70.5234C117.494 71.3776 116.772 72.0521 115.84 72.5469C114.908 73.0365 113.814 73.2813 112.559 73.2813C111.304 73.2813 110.21 73.0365 109.278 72.5469C108.345 72.0521 107.621 71.3776 107.106 70.5234C106.595 69.6641 106.34 68.6875 106.34 67.5937V57H108.278V67.4375C108.278 68.2187 108.45 68.9141 108.793 69.5234C109.137 70.1276 109.627 70.6042 110.262 70.9531C110.903 71.2969 111.668 71.4687 112.559 71.4687C113.45 71.4687 114.215 71.2969 114.856 70.9531C115.496 70.6042 115.986 70.1276 116.325 69.5234C116.668 68.9141 116.84 68.2187 116.84 67.4375V57ZM122.757 57H125.069L130.507 70.2812H130.694L136.132 57H138.444V73H136.632V60.8438H136.476L131.476 73H129.726L124.726 60.8438H124.569V73H122.757V57ZM155.127 57V73H153.252L144.533 60.4375H144.377V73H142.439V57H144.314L153.064 69.5937H153.22V57H155.127Z" fill="#FFCC21"/>
<path d="M80 88H136H80Z" fill="black" fill-opacity="0.01"/>
<path d="M80 88H136" stroke="white"/>
</svg>
